<?xml version="1.0" encoding="utf-8"?>
<!-- Generator: Adobe Illustrator 22.0.1, SVG Export Plug-In . SVG Version: 6.00 Build 0)  -->
<svg version="1.1" id="Layer_1" xmlns="http://www.w3.org/2000/svg" xmlns:xlink="http://www.w3.org/1999/xlink" x="0px" y="0px"
	 viewBox="0 0 190 55" style="enable-background:new 0 0 190 55;" xml:space="preserve">
<style type="text/css">
	.st0{fill:none;stroke:#000000;stroke-width:2.8195;stroke-linecap:round;stroke-linejoin:round;}
	.st1{fill:none;stroke:#000000;stroke-width:2.8195;stroke-linecap:round;stroke-linejoin:round;stroke-miterlimit:10;}
	.st2{fill:none;stroke:#000000;stroke-width:2.6205;stroke-miterlimit:10;}
	.st3{fill:none;stroke:#000000;stroke-width:2.4959;stroke-miterlimit:10;}
	.st4{fill:none;stroke:#000000;stroke-width:1.5893;stroke-linejoin:round;}
	.st5{fill:#FFFFFF;}
	.st6{fill:none;stroke:#000000;stroke-width:1.5893;stroke-linejoin:round;stroke-miterlimit:10;}
	.st7{fill:none;stroke:#000000;stroke-width:1.8645;stroke-linecap:round;stroke-miterlimit:10;}
	.st8{fill:none;stroke:#000000;stroke-width:1.3894;stroke-linecap:round;stroke-miterlimit:10;}
	.st9{fill:none;stroke:#000000;stroke-width:0.4795;stroke-linecap:round;stroke-miterlimit:10;}
	.st10{stroke:#000000;stroke-width:1.9436;stroke-linecap:round;stroke-linejoin:bevel;stroke-miterlimit:10;}
	.st11{stroke:#000000;stroke-width:0.7067;stroke-linecap:round;stroke-linejoin:bevel;stroke-miterlimit:10;}
	.st12{stroke:#000000;stroke-width:1.3793;stroke-linecap:round;stroke-linejoin:bevel;stroke-miterlimit:10;}
	.st13{fill:#FFFFFF;stroke:#000000;stroke-width:0.5009;stroke-linecap:round;stroke-linejoin:bevel;stroke-miterlimit:10;}
	.st14{fill:none;stroke:#000000;stroke-width:1.7821;stroke-linecap:round;stroke-miterlimit:10;}
</style>
<g>
	<g>
		<g>
			<path class="st0" d="M15,26.3c-13.3-1.7-5.2-8.5,1.1-12.5"/>
			<g>
				<polygon points="16.9,16.7 19.6,11.8 14,11.9 				"/>
			</g>
		</g>
	</g>
	<path class="st1" d="M13.1,26c1.4,0.1,2.7,0.4,4,0.8c1.2,0.4,2.4,0.9,3,2.1c0.6,1.2,0.1,2.3-0.6,3.3c-0.1,0.1-0.2,0.3-0.4,0.5
		c-0.6,0.7-1.1,1.2-1.7,1.8c-1.7,1.5-3.4,2.7-5.3,3.9c-1.3,0.9-2.6,1.5-3.9,2.3"/>
</g>
<g>
	<path class="st2" d="M42,33.4c0,3,0,6,0,9.1"/>
	<line class="st2" x1="46.7" y1="34.5" x2="40.9" y2="34.5"/>
	<line class="st3" x1="40.5" y1="29.2" x2="49.8" y2="29.2"/>
</g>
<g>
	<g>
		<g>
			<line class="st4" x1="65.1" y1="27.1" x2="63.1" y2="30.2"/>
			<g>
				<g>
					<path class="st5" d="M64,26.5c0.4-0.6,1.2-0.7,1.7-0.4c0.6,0.4,0.7,1.2,0.4,1.7c-0.4,0.6-1.2,0.7-1.7,0.4
						C63.8,27.9,63.6,27.1,64,26.5z"/>
					<path d="M63.9,26.4c-0.4,0.7-0.2,1.5,0.4,2s1.5,0.2,2-0.4c0.4-0.7,0.2-1.5-0.4-2C65.2,25.6,64.3,25.8,63.9,26.4
						C63.4,27.1,64.3,25.8,63.9,26.4z M66,27.8c-0.3,0.5-1,0.6-1.5,0.3c-0.5-0.3-0.6-1-0.3-1.5c0.3-0.5,1-0.6,1.5-0.3
						C66.2,26.6,66.3,27.3,66,27.8C65.7,28.3,66.3,27.3,66,27.8z"/>
				</g>
			</g>
		</g>
	</g>
	<g>
		<g>
			<line class="st4" x1="54" y1="32.6" x2="56" y2="29.5"/>
			<g>
				<g>
					<circle class="st5" cx="54" cy="32.5" r="1.3"/>
					<path d="M55.2,33.3c0.4-0.7,0.2-1.5-0.4-2c-0.7-0.4-1.5-0.2-2,0.4c-0.4,0.7-0.2,1.5,0.4,2C53.9,34.2,54.8,34,55.2,33.3
						C55.7,32.7,54.8,34,55.2,33.3z M53.1,31.9c0.3-0.5,1-0.6,1.5-0.3c0.5,0.3,0.6,1,0.3,1.5c-0.3,0.5-1,0.6-1.5,0.3
						S52.8,32.5,53.1,31.9C53.5,31.4,52.8,32.5,53.1,31.9z"/>
				</g>
			</g>
		</g>
	</g>
	<line class="st6" x1="63.7" y1="29.8" x2="55.3" y2="29.8"/>
	<g>
		<g>
			<line class="st4" x1="59.6" y1="42.2" x2="59.6" y2="29.7"/>
			<g>
				<rect x="58.6" y="42" width="2.1" height="0.3"/>
			</g>
		</g>
	</g>
</g>
<path d="M37.4,35.7v-1c0-0.4-0.3-0.8-0.8-0.8h0c-0.3,0-0.6-0.3-0.7-0.6c0,0,0,0,0,0c-0.1-0.4,0.1-0.7,0.3-0.9l0,0
	c0.4-0.2,0.5-0.7,0.3-1.1L36.4,31c-0.2-0.4-0.7-0.5-1-0.3l0,0c-0.3,0.2-0.7,0.1-0.9-0.1c0,0,0,0,0,0c-0.2-0.3-0.3-0.7-0.1-1l0,0
	c0.2-0.4,0.1-0.9-0.3-1.1l-0.2-0.1c-0.4-0.2-0.8-0.1-1,0.3l0,0c-0.2,0.3-0.5,0.5-0.9,0.4c0,0,0,0,0,0c-0.3-0.1-0.6-0.4-0.6-0.8v0
	c0-0.4-0.3-0.8-0.8-0.8h-0.2c-0.4,0-0.8,0.4-0.8,0.8v0c0,0.4-0.2,0.7-0.6,0.8c0,0,0,0,0,0c-0.3,0.1-0.7-0.1-0.9-0.4l0,0
	c-0.2-0.4-0.7-0.5-1-0.3l-0.2,0.1c-0.4,0.2-0.5,0.7-0.3,1.1l0,0c0.2,0.3,0.1,0.7-0.1,1c0,0,0,0,0,0c-0.2,0.3-0.6,0.3-0.9,0.1l0,0
	c-0.4-0.2-0.8-0.1-1,0.3l-0.1,0.2c-0.2,0.4-0.1,0.9,0.3,1.1l0,0c0.3,0.2,0.4,0.6,0.3,0.9c0,0,0,0,0,0c-0.1,0.4-0.4,0.6-0.7,0.6h0
	c-0.4,0-0.8,0.4-0.8,0.8v0.2c0,0.4,0.3,0.8,0.8,0.8h0c0.3,0,0.6,0.3,0.7,0.6c0,0,0,0,0,0c0.1,0.4-0.1,0.7-0.4,0.9l0,0
	c-0.4,0.2-0.5,0.7-0.3,1.1l0.1,0.2c0.2,0.4,0.7,0.5,1,0.3l0,0c0.3-0.2,0.7-0.1,0.9,0.1c0,0,0,0,0,0c0.2,0.3,0.3,0.7,0.1,1l0,0
	c-0.2,0.4-0.1,0.9,0.3,1.1l0.2,0.1c0.4,0.2,0.8,0.1,1-0.3l0,0c0.2-0.3,0.5-0.5,0.9-0.4c0,0,0,0,0,0c0.3,0.1,0.6,0.4,0.6,0.8v0
	c0,0.4,0.3,0.8,0.8,0.8h0.2c0.4,0,0.8-0.4,0.8-0.8v0c0-0.4,0.2-0.7,0.6-0.8c0,0,0,0,0,0c0.3-0.1,0.7,0.1,0.9,0.4l0,0
	c0.2,0.4,0.7,0.5,1,0.3l0.2-0.1c0.4-0.2,0.5-0.7,0.3-1.1l0,0c-0.2-0.3-0.1-0.7,0.1-1c0,0,0,0,0,0c0.2-0.3,0.6-0.3,0.9-0.1l0,0
	c0.4,0.2,0.8,0.1,1-0.3l0.1-0.2c0.2-0.4,0.1-0.9-0.3-1.1l0,0c-0.3-0.2-0.4-0.6-0.3-0.9c0-0.1,0-0.2,0.1-0.3c0-0.2,0.2-0.4,0.5-0.4
	H37.4L37.4,35.7z M28.9,38.6c-1-0.4-1.7-1.2-2.1-2.2c-1.1-3,1-5.8,3.6-5.8c2.2,0,3.9,1.9,3.9,4.1C34.3,37.6,31.7,39.8,28.9,38.6z"/>
<g>
	<line class="st7" x1="87.4" y1="29.9" x2="87.4" y2="40.8"/>
	<line class="st7" x1="86.8" y1="40.5" x2="93.5" y2="40.5"/>
</g>
<g>
	<line class="st8" x1="71.6" y1="29.3" x2="73.8" y2="40.6"/>
	<line class="st8" x1="72.3" y1="32.6" x2="81.8" y2="32.6"/>
	<line class="st8" x1="73" y1="36.7" x2="80.7" y2="36.7"/>
	<line class="st8" x1="73.9" y1="40.6" x2="79.9" y2="40.6"/>
	<line class="st8" x1="69.2" y1="29.3" x2="71.6" y2="29.3"/>
	<ellipse transform="matrix(0.5957 -0.8032 0.8032 0.5957 -4.5212 77.3549)" class="st9" cx="74.6" cy="43.2" rx="0.7" ry="0.7"/>
	<ellipse transform="matrix(0.5957 -0.8032 0.8032 0.5957 -2.567 81.237)" class="st9" cx="79.4" cy="43.2" rx="0.7" ry="0.7"/>
</g>
<g>
	<line class="st8" x1="111.2" y1="29.4" x2="113.4" y2="40.7"/>
	<line class="st8" x1="111.9" y1="32.6" x2="121.4" y2="32.6"/>
	<line class="st8" x1="112.6" y1="36.7" x2="120.3" y2="36.7"/>
	<line class="st8" x1="113.4" y1="40.7" x2="119.5" y2="40.7"/>
	<line class="st8" x1="108.8" y1="29.4" x2="111.2" y2="29.4"/>
	<ellipse transform="matrix(0.5957 -0.8032 0.8032 0.5957 11.4505 109.1717)" class="st9" cx="114.2" cy="43.2" rx="0.7" ry="0.7"/>
	<ellipse transform="matrix(0.5957 -0.8032 0.8032 0.5957 13.4047 113.0538)" class="st9" cx="119" cy="43.2" rx="0.7" ry="0.7"/>
</g>
<g>
	<g>
		<g>
			<line class="st4" x1="148.9" y1="27.1" x2="146.9" y2="30.2"/>
			<g>
				<g>
					<path class="st5" d="M147.8,26.5c0.4-0.6,1.2-0.7,1.7-0.4s0.7,1.2,0.4,1.7c-0.4,0.6-1.2,0.7-1.7,0.4
						C147.6,27.9,147.4,27.1,147.8,26.5z"/>
					<path d="M147.7,26.4c-0.4,0.7-0.2,1.5,0.4,2s1.5,0.2,2-0.4c0.4-0.7,0.2-1.5-0.4-2C149,25.6,148.1,25.8,147.7,26.4
						C147.2,27.1,148.1,25.8,147.7,26.4z M149.8,27.8c-0.3,0.5-1,0.6-1.5,0.3c-0.5-0.3-0.6-1-0.3-1.5c0.3-0.5,1-0.6,1.5-0.3
						C149.9,26.6,150.1,27.3,149.8,27.8C149.4,28.3,150.1,27.3,149.8,27.8z"/>
				</g>
			</g>
		</g>
	</g>
	<g>
		<g>
			<line class="st4" x1="137.8" y1="32.6" x2="139.8" y2="29.5"/>
			<g>
				<g>
					<path class="st5" d="M138.9,33.2c-0.4,0.6-1.2,0.7-1.7,0.4c-0.6-0.4-0.7-1.2-0.4-1.7c0.4-0.6,1.2-0.7,1.7-0.4
						C139.1,31.9,139.3,32.6,138.9,33.2z"/>
					<path d="M139,33.3c0.4-0.7,0.2-1.5-0.4-2c-0.7-0.4-1.5-0.2-2,0.4c-0.4,0.7-0.2,1.5,0.4,2S138.6,34,139,33.3
						C139.4,32.7,138.6,34,139,33.3z M136.9,31.9c0.3-0.5,1-0.6,1.5-0.3c0.5,0.3,0.6,1,0.3,1.5c-0.3,0.5-1,0.6-1.5,0.3
						S136.6,32.5,136.9,31.9C137.2,31.4,136.6,32.5,136.9,31.9z"/>
				</g>
			</g>
		</g>
	</g>
	<line class="st6" x1="147.5" y1="29.8" x2="139.1" y2="29.8"/>
	<g>
		<g>
			<line class="st4" x1="143.4" y1="42.2" x2="143.4" y2="29.7"/>
			<g>
				<rect x="142.4" y="42" width="2.1" height="0.3"/>
			</g>
		</g>
	</g>
</g>
<g>
	<path d="M151.9,39.6v-9c0-0.2,0.1-0.4,0.2-0.6c0.2-0.2,0.3-0.2,0.6-0.2c0.2,0,0.4,0.1,0.6,0.2c0.2,0.2,0.2,0.3,0.2,0.5v9
		c0,0.2,0.1,0.4,0.2,0.5c0.2,0.1,0.3,0.2,0.6,0.2h3.2c0.2,0,0.4-0.1,0.6-0.2c0.2-0.1,0.2-0.3,0.2-0.5v-9c0-0.2,0.1-0.4,0.2-0.6
		c0.2-0.2,0.3-0.2,0.6-0.2c0.2,0,0.4,0.1,0.6,0.2c0.2,0.2,0.2,0.3,0.2,0.6v9c0,0.6-0.2,1.2-0.7,1.6c-0.5,0.5-1,0.7-1.7,0.7h-3.2
		c-0.7,0-1.2-0.2-1.7-0.7C152.1,40.8,151.9,40.3,151.9,39.6z"/>
</g>
<g>
	<g>
		<path d="M164.9,33h7.4c0.2,0,0.3-0.2,0.3-0.4c-0.2-1.1-1-2.1-2-2.6l0.6-1.1c0-0.1,0-0.2-0.1-0.2c-0.1,0-0.2,0-0.2,0.1l-0.6,1.1
			c-0.5-0.2-1.1-0.4-1.7-0.4s-1.2,0.1-1.7,0.4l-0.6-1.1c0-0.1-0.1-0.1-0.2-0.1c-0.1,0-0.1,0.1-0.1,0.2l0.6,1.1c-1,0.5-1.7,1.5-2,2.6
			C164.5,32.8,164.7,33,164.9,33z M170.8,31.3c0,0.2-0.2,0.3-0.3,0.3c-0.2,0-0.3-0.1-0.3-0.3c0-0.2,0.2-0.3,0.3-0.3
			C170.6,31,170.8,31.1,170.8,31.3z M166.7,31c0.2,0,0.3,0.1,0.3,0.3c0,0.2-0.2,0.3-0.3,0.3s-0.3-0.1-0.3-0.3
			C166.4,31.1,166.5,31,166.7,31z"/>
		<line class="st10" x1="165.6" y1="32.5" x2="163.9" y2="41"/>
		<line class="st10" x1="173" y1="41" x2="171.6" y2="32.8"/>
		<line class="st11" x1="165.2" y1="36.8" x2="171.6" y2="36.8"/>
		<ellipse class="st12" cx="168.5" cy="34.4" rx="2.1" ry="2"/>
		<path class="st11" d="M166,36.5L166,36.5c-0.3,0-0.5-0.2-0.5-0.5v-0.3c0-0.3,0.2-0.5,0.5-0.5h0.1c0.3,0,0.5,0.2,0.5,0.5V36
			C166.5,36.3,166.2,36.5,166,36.5z"/>
		<path class="st11" d="M170.9,36.4L170.9,36.4c-0.1,0-0.2-0.1-0.2-0.2v-0.7c0-0.1,0.1-0.2,0.2-0.2h0c0.1,0,0.2,0.1,0.2,0.2v0.7
			C171.1,36.3,171,36.4,170.9,36.4z"/>
	</g>
	<path class="st13" d="M169.9,35.7h-2.8c-0.8,0-1.4-0.6-1.4-1.4v-0.8c0-0.8,0.6-1.4,1.4-1.4h2.8c0.8,0,1.4,0.6,1.4,1.4v0.8
		C171.3,35.1,170.7,35.7,169.9,35.7z"/>
</g>
<g>
	<line class="st14" x1="178.3" y1="30.4" x2="178.3" y2="41.1"/>
	<line class="st14" x1="177.8" y1="40.8" x2="184" y2="40.8"/>
</g>
<g>
	<line class="st7" x1="100.4" y1="29.9" x2="100.4" y2="40.8"/>
	<line class="st7" x1="99.9" y1="40.5" x2="106.5" y2="40.5"/>
</g>
<g>
	<path d="M133,41.7h-3.7c-0.7,0-1.2-0.2-1.7-0.6l-1.7-1.4c-0.5-0.4-0.8-1-0.8-1.8v-2.2c0-0.7,0.3-1.3,0.9-1.9l1.5-1.3
		c0.5-0.4,1-0.6,1.6-0.6h3.9c0.2,0,0.4,0.1,0.6,0.2c0.2,0.2,0.3,0.4,0.3,0.6c0,0.2-0.1,0.4-0.3,0.6c-0.2,0.2-0.4,0.2-0.6,0.2h-3.7
		c-0.2,0-0.5,0.1-0.7,0.3l-1.4,1.2c-0.2,0.2-0.3,0.4-0.3,0.8v2.1c0,0.2,0.1,0.4,0.3,0.6l1.5,1.3c0.2,0.2,0.4,0.3,0.8,0.3h3.6
		c0.2,0,0.4,0.1,0.6,0.2c0.2,0.2,0.3,0.4,0.3,0.6c0,0.2-0.1,0.4-0.3,0.6C133.5,41.6,133.3,41.7,133,41.7z"/>
</g>
</svg>
